<svg xmlns="http://www.w3.org/2000/svg" width="19.01" height="14.407" viewBox="0 0 19.01 14.407"><path d="M22.955,23.6a2.632,2.632,0,0,0,1.376-2.515c0-2.863-4-4.941-9.507-4.941s-9.5,2.078-9.5,4.941A2.632,2.632,0,0,0,6.7,23.6a.319.319,0,0,0,.218.025l1.96-.472a3.456,3.456,0,0,1-.831,1.387l-.016.019a4.675,4.675,0,0,0-1.362,3.375v2.3a.319.319,0,0,0,.319.319H22.668a.319.319,0,0,0,.319-.319v-2.3a4.674,4.674,0,0,0-1.362-3.374l-.017-.02a3.455,3.455,0,0,1-.831-1.386l1.96.472A.316.316,0,0,0,22.955,23.6Zm-1.831,1.356.017.02a4.021,4.021,0,0,1,1.207,2.957v1.98H7.3v-1.98A4.021,4.021,0,0,1,8.511,24.97l.016-.019A3.625,3.625,0,0,0,9.55,22.986l1.276-.307a.319.319,0,0,0,.223-.194,3.223,3.223,0,0,0-.155-2.564,8.236,8.236,0,0,1,1.756-.561l.29,1.066a.319.319,0,0,0,.308.235h3.2a.319.319,0,0,0,.308-.235l.287-1.057a8.284,8.284,0,0,1,1.721.554,3.222,3.222,0,0,0-.155,2.563.32.32,0,0,0,.223.194l1.276.307A3.622,3.622,0,0,0,21.124,24.951Zm-7.843-5.7a11.013,11.013,0,0,1,3.126.006l-.208.766H13.491ZM19.145,22.1a2.58,2.58,0,0,1,.323-2.113.319.319,0,0,0-.09-.465A9.338,9.338,0,0,0,14.826,18.5a9.337,9.337,0,0,0-4.552,1.018.319.319,0,0,0-.09.465,2.578,2.578,0,0,1,.322,2.113l-3.621.872a2.058,2.058,0,0,1-.926-1.891c0-2.453,3.811-4.3,8.868-4.3s8.866,1.85,8.866,4.3a2.058,2.058,0,0,1-.926,1.891Zm-4.32-.375a3.395,3.395,0,1,0,3.4,3.395A3.4,3.4,0,0,0,14.826,21.724Zm0,6.152a2.757,2.757,0,1,1,2.757-2.757A2.76,2.76,0,0,1,14.826,27.875Zm0-3.4a.643.643,0,1,0,.643.642A.643.643,0,0,0,14.826,24.476Zm0-.8a.4.4,0,1,0-.4-.4A.4.4,0,0,0,14.826,23.671Zm0,2.895a.4.4,0,1,0,.4.4A.4.4,0,0,0,14.826,26.566Zm1.447-1.448a.4.4,0,1,0,.4-.4A.4.4,0,0,0,16.274,25.118Zm-2.9,0a.4.4,0,1,0-.4.4A.4.4,0,0,0,13.378,25.118Zm2.776-.906a.4.4,0,1,0-.4-.4A.4.4,0,0,0,16.154,24.213Zm-2.615,1.811a.4.4,0,1,0,.4.4A.4.4,0,0,0,13.539,26.024Zm2.616,0a.4.4,0,1,0,.4.4A.4.4,0,0,0,16.155,26.024Zm-2.616-2.615a.4.4,0,1,0,.4.4A.4.4,0,0,0,13.539,23.409Z" transform="translate(-5.321 -16.139)"/></svg>